<?xml version="1.0" encoding="UTF-8"?>
<!-- Created with Inkscape (http://www.inkscape.org/) -->
<svg width="272.32mm" height="36.964mm" version="1.1" viewBox="0 0 272.32 36.964" xmlns="http://www.w3.org/2000/svg">
 <g transform="translate(-13.411 -83.263)">
  <g fill="#fff" stroke-width=".26458" aria-label="RAMNOTE">
   <path d="m13.411 112.06h2.2931v-20.637h-2.2931v-7.5212h21.05q5.9161 0 9.0346 2.4306t3.1186 7.8881q0 3.0727-1.2382 5.3199-1.2382 2.2472-3.5313 3.1186l0.04586 0.45861q4.4027 0.68792 4.4027 5.4116v3.5313h2.1555v7.5212h-14.538v-10.777q0-1.7886-0.55033-2.7058-0.50447-0.91722-1.651-1.2382-1.1007-0.32102-3.1644-0.32102v7.5212h3.0268v7.5212h-18.161zm17.611-13.116q1.33 0 1.972-0.68792 0.68792-0.73378 0.68792-2.2472v-1.651q0-1.5134-0.68792-2.2013-0.64206-0.73378-1.972-0.73378h-2.4765v7.5212z"/>
   <path d="m83.762 112.06h1.8344v7.5212h-17.978v-7.5212h2.7517l-0.73378-3.6689h-6.2371l-0.73378 3.6689h2.7517v7.5212h-15.684v-7.5212h1.8344l7.7505-28.159h16.693zm-19.353-8.5302h4.2192l-1.8803-9.1264h-0.45861z"/>
   <path d="m137.65 91.427h-2.293v20.637h2.293v7.5212h-17.335v-7.5212h2.2013v-16.051l-7.7964 23.573h-6.7874l-8.0257-23.343v15.822h2.2013v7.5212h-15.042v-7.5212h2.2931v-20.637h-2.2931v-7.5212h21.004l4.7696 14.309 4.5861-14.309h20.225z"/>
   <path d="m165.9 83.905h15.042v7.5212h-2.293v28.159h-12.887l-13.437-20.683v13.162h2.2013v7.5212h-15.042v-7.5212h2.2931v-20.637h-2.2931v-7.5212h16.556l12.061 18.39v-10.869h-2.2013z"/>
   <path d="m199.93 120.23q-8.3926 0-12.979-4.4027-4.5402-4.4027-4.5402-14.079 0-9.6767 4.5402-14.079 4.5861-4.4027 12.979-4.4027t12.933 4.4027q4.5861 4.4027 4.5861 14.079 0 9.6767-4.5861 14.079-4.5402 4.4027-12.933 4.4027zm0-8.1633q1.5593 0 2.3389-0.8255 0.77963-0.8255 0.77963-2.5682v-13.85q0-1.7427-0.77963-2.5682-0.77964-0.8255-2.3389-0.8255t-2.3389 0.8255q-0.77963 0.8255-0.77963 2.5682v13.85q0 1.7886 0.77963 2.6141 0.77964 0.77964 2.3389 0.77964z"/>
   <path d="m253.22 95.004h-7.8881v-3.5772h-2.9351v20.637h3.2103v7.5212h-19.262v-7.5212h3.2103v-20.637h-2.9351v3.5772h-7.8881v-11.098h34.488z"/>
   <path d="m254.78 119.59v-7.5212h2.2931v-20.637h-2.2931v-7.5212h30.956v13.85h-10.273v-6.3288h-5.5492v7.2461h4.0358v5.2282h-4.0358v8.1633h5.5492v-7.2461h10.273v14.767z"/>
  </g>
 </g>
</svg>
